<svg width="300" height="300" viewBox="0 0 300 300" fill="none" xmlns="http://www.w3.org/2000/svg">
<rect width="300" height="300" fill="white"/>
<path d="M129.887 167.211C128.387 165.711 98.3871 136.211 91.8872 129.711C85.3873 123.212 74.8871 122.052 67.3872 129.211C59.8872 136.37 59.6763 146 65.3871 151.711C67.8871 154.211 118.206 204.206 122 208C127 212.5 136 212.5 141 208C145 204 228.887 120.711 233.887 115.711C241 108.598 237.103 98.5 233 94C228.897 89.5 217.534 85.7347 209.887 93.2109C205.5 97.5 135.887 165.711 134.387 167.211C132.887 168.711 131.387 168.711 129.887 167.211Z" stroke="#4ED9C8" stroke-width="14"/>
</svg>
